<?xml version="1.0" encoding="UTF-8" standalone="no"?>
<!DOCTYPE svg PUBLIC "-//W3C//DTD SVG 1.1//EN"
 "http://www.w3.org/Graphics/SVG/1.1/DTD/svg11.dtd">
<!-- Generated by graphviz version 2.43.0 (0)
 -->
<!-- Title: Trinitätsdreieck_Objektlisten Pages: 1 -->
<svg width="532pt" height="387pt"
 viewBox="0.00 0.00 531.71 386.69" xmlns="http://www.w3.org/2000/svg" xmlns:xlink="http://www.w3.org/1999/xlink">
<g id="graph0" class="graph" transform="scale(1 1) rotate(0) translate(4 382.69)">
<title>Trinitätsdreieck_Objektlisten</title>
<polygon fill="white" stroke="transparent" points="-4,4 -4,-382.69 527.71,-382.69 527.71,4 -4,4"/>
<!-- A -->
<g id="node1" class="node">
<title>A</title>
<ellipse fill="none" stroke="black" cx="261.85" cy="-310.19" rx="68.5" ry="68.5"/>
<text text-anchor="middle" x="261.85" y="-306.49" font-family="Times,serif" font-size="14.00">Abstrakter Lokator</text>
</g>
<!-- B -->
<g id="node2" class="node">
<title>B</title>
<ellipse fill="none" stroke="black" cx="68.5" cy="-68.5" rx="68.5" ry="68.5"/>
<text text-anchor="middle" x="68.5" y="-64.8" font-family="Times,serif" font-size="14.00">Konkreter Lokator</text>
</g>
<!-- A&#45;&#45;B -->
<g id="edge4" class="edge">
<title>A&#45;&#45;B</title>
<path fill="none" stroke="black" d="M218.94,-256.55C187.01,-216.64 143.61,-162.38 111.63,-122.41"/>
<text text-anchor="middle" x="135.8" y="-193.3" font-family="Times,serif" font-size="14.00">ist nicht</text>
</g>
<!-- C -->
<g id="node3" class="node">
<title>C</title>
<ellipse fill="none" stroke="black" cx="455.21" cy="-68.5" rx="68.5" ry="68.5"/>
<text text-anchor="middle" x="455.21" y="-64.8" font-family="Times,serif" font-size="14.00">Interaktionsklasse</text>
</g>
<!-- B&#45;&#45;C -->
<g id="edge5" class="edge">
<title>B&#45;&#45;C</title>
<path fill="none" stroke="black" d="M137.19,-68.5C207.51,-68.5 316.18,-68.5 386.51,-68.5"/>
<text text-anchor="middle" x="232.35" y="-72.3" font-family="Times,serif" font-size="14.00">ist nicht</text>
</g>
<!-- C&#45;&#45;A -->
<g id="edge6" class="edge">
<title>C&#45;&#45;A</title>
<path fill="none" stroke="black" d="M412.29,-122.14C380.36,-162.05 336.96,-216.31 304.98,-256.28"/>
<text text-anchor="middle" x="388.16" y="-192.99" font-family="Times,serif" font-size="14.00">ist nicht</text>
</g>
<!-- O -->
<g id="node4" class="node">
<title>O</title>
<ellipse fill="none" stroke="black" cx="261.85" cy="-165.18" rx="68.5" ry="68.5"/>
<text text-anchor="middle" x="261.85" y="-161.48" font-family="Times,serif" font-size="14.00">Objektliste</text>
</g>
<!-- O&#45;&#45;A -->
<g id="edge1" class="edge">
<title>O&#45;&#45;A</title>
<path fill="none" stroke="black" d="M261.85,-233.86C261.85,-236.35 261.85,-238.85 261.85,-241.33"/>
<text text-anchor="middle" x="252.35" y="-241.4" font-family="Times,serif" font-size="14.00">ist</text>
</g>
<!-- O&#45;&#45;B -->
<g id="edge2" class="edge">
<title>O&#45;&#45;B</title>
<path fill="none" stroke="black" d="M200.41,-134.45C177.85,-123.18 152.33,-110.41 129.78,-99.14"/>
<text text-anchor="middle" x="155.59" y="-120.6" font-family="Times,serif" font-size="14.00">ist</text>
</g>
<!-- O&#45;&#45;C -->
<g id="edge3" class="edge">
<title>O&#45;&#45;C</title>
<path fill="none" stroke="black" d="M323.3,-134.45C345.85,-123.18 371.38,-110.41 393.92,-99.14"/>
<text text-anchor="middle" x="349.11" y="-120.6" font-family="Times,serif" font-size="14.00">ist</text>
</g>
</g>
</svg>
