<svg xmlns="http://www.w3.org/2000/svg" xmlns:xlink="http://www.w3.org/1999/xlink" contentStyleType="text/css" data-diagram-type="CLASS" height="706px" preserveAspectRatio="none" style="width:1888px;height:706px;background:#FFFFFF;" version="1.1" viewBox="0 0 1888 706" width="1888px" zoomAndPan="magnify"><title>OKW4Robot - Klassen&#252;bersicht: Widgets, Adapters &amp; &#8222;Heilige Dreifaltigkeit&#8220;</title><defs/><g><g class="title" data-source-line="3"><text fill="#000000" font-family="sans-serif" font-size="14" font-weight="bold" lengthAdjust="spacing" textLength="608.4668" x="633.0344" y="22.9951">OKW4Robot - Klassen&#252;bersicht: Widgets, Adapters &amp; &#8222;Heilige Dreifaltigkeit&#8220;</text></g><!--class ObjectDescriptor--><g class="entity" data-entity="ObjectDescriptor" data-source-line="6" data-uid="ent0002" id="entity_ObjectDescriptor"><rect fill="#F1F1F1" height="96.8906" rx="2.5" ry="2.5" style="stroke:#181818;stroke-width:0.5;" width="508.9795" x="7" y="60.2969"/><ellipse cx="198.0781" cy="76.2969" fill="#ADD1B2" rx="11" ry="11" style="stroke:#181818;stroke-width:1;"/><path d="M201.0469,81.9375 Q200.4688,82.2344 199.8281,82.375 Q199.1875,82.5313 198.4844,82.5313 Q195.9844,82.5313 194.6563,80.8906 Q193.3438,79.2344 193.3438,76.1094 Q193.3438,72.9844 194.6563,71.3281 Q195.9844,69.6719 198.4844,69.6719 Q199.1875,69.6719 199.8281,69.8281 Q200.4844,69.9844 201.0469,70.2813 L201.0469,73 Q200.4219,72.4219 199.8281,72.1563 Q199.2344,71.875 198.6094,71.875 Q197.2656,71.875 196.5781,72.9531 Q195.8906,74.0156 195.8906,76.1094 Q195.8906,78.2031 196.5781,79.2813 Q197.2656,80.3438 198.6094,80.3438 Q199.2344,80.3438 199.8281,80.0781 Q200.4219,79.7969 201.0469,79.2188 L201.0469,81.9375 Z " fill="#000000"/><text fill="#000000" font-family="sans-serif" font-size="14" lengthAdjust="spacing" textLength="118.3232" x="218.5781" y="81.1436">ObjectDescriptor</text><line style="stroke:#181818;stroke-width:0.5;" x1="8" x2="514.9795" y1="92.2969" y2="92.2969"/><text fill="#000000" font-family="sans-serif" font-size="14" lengthAdjust="spacing" textLength="311.7461" x="13" y="109.292">+name: String                ' abstrakter Lokator</text><text fill="#000000" font-family="sans-serif" font-size="14" lengthAdjust="spacing" textLength="418.1611" x="13" y="125.5889">+interactionClass: String    ' z. B. "Button", "CustomButton"</text><line style="stroke:#181818;stroke-width:0.5;" x1="8" x2="514.9795" y1="132.8906" y2="132.8906"/><text fill="#000000" font-family="sans-serif" font-size="14" lengthAdjust="spacing" textLength="496.9795" x="13" y="149.8857">+locator: String             ' konkreter Lokator (XPath/CSS/RPC-Handle/&#8230;)</text></g><!--class ObjectRepository--><g class="entity" data-entity="ObjectRepository" data-source-line="12" data-uid="ent0003" id="entity_ObjectRepository"><rect fill="#F1F1F1" height="64.2969" rx="2.5" ry="2.5" style="stroke:#181818;stroke-width:0.5;" width="348.5127" x="570" y="297.7969"/><ellipse cx="679.6724" cy="313.7969" fill="#ADD1B2" rx="11" ry="11" style="stroke:#181818;stroke-width:1;"/><path d="M682.6411,319.4375 Q682.063,319.7344 681.4224,319.875 Q680.7817,320.0313 680.0786,320.0313 Q677.5786,320.0313 676.2505,318.3906 Q674.938,316.7344 674.938,313.6094 Q674.938,310.4844 676.2505,308.8281 Q677.5786,307.1719 680.0786,307.1719 Q680.7817,307.1719 681.4224,307.3281 Q682.0786,307.4844 682.6411,307.7813 L682.6411,310.5 Q682.0161,309.9219 681.4224,309.6563 Q680.8286,309.375 680.2036,309.375 Q678.8599,309.375 678.1724,310.4531 Q677.4849,311.5156 677.4849,313.6094 Q677.4849,315.7031 678.1724,316.7813 Q678.8599,317.8438 680.2036,317.8438 Q680.8286,317.8438 681.4224,317.5781 Q682.0161,317.2969 682.6411,316.7188 L682.6411,319.4375 Z " fill="#000000"/><text fill="#000000" font-family="sans-serif" font-size="14" lengthAdjust="spacing" textLength="120.668" x="700.1724" y="318.6436">ObjectRepository</text><line style="stroke:#181818;stroke-width:0.5;" x1="571" x2="917.5127" y1="329.7969" y2="329.7969"/><line style="stroke:#181818;stroke-width:0.5;" x1="571" x2="917.5127" y1="337.7969" y2="337.7969"/><text fill="#000000" font-family="sans-serif" font-size="14" lengthAdjust="spacing" textLength="336.5127" x="576" y="354.792">+getDescriptor(name: String): ObjectDescriptor</text></g><!--class WidgetDispatcher--><g class="entity" data-entity="WidgetDispatcher" data-source-line="17" data-uid="ent0004" id="entity_WidgetDispatcher"><rect fill="#F1F1F1" height="129.4844" rx="2.5" ry="2.5" style="stroke:#181818;stroke-width:0.5;" width="329.5293" x="926.5" y="44.2969"/><ellipse cx="1024.2813" cy="60.2969" fill="#ADD1B2" rx="11" ry="11" style="stroke:#181818;stroke-width:1;"/><path d="M1027.25,65.9375 Q1026.6719,66.2344 1026.0313,66.375 Q1025.3906,66.5313 1024.6875,66.5313 Q1022.1875,66.5313 1020.8594,64.8906 Q1019.5469,63.2344 1019.5469,60.1094 Q1019.5469,56.9844 1020.8594,55.3281 Q1022.1875,53.6719 1024.6875,53.6719 Q1025.3906,53.6719 1026.0313,53.8281 Q1026.6875,53.9844 1027.25,54.2813 L1027.25,57 Q1026.625,56.4219 1026.0313,56.1563 Q1025.4375,55.875 1024.8125,55.875 Q1023.4688,55.875 1022.7813,56.9531 Q1022.0938,58.0156 1022.0938,60.1094 Q1022.0938,62.2031 1022.7813,63.2813 Q1023.4688,64.3438 1024.8125,64.3438 Q1025.4375,64.3438 1026.0313,64.0781 Q1026.625,63.7969 1027.25,63.2188 L1027.25,65.9375 Z " fill="#000000"/><text fill="#000000" font-family="sans-serif" font-size="14" lengthAdjust="spacing" textLength="125.4668" x="1044.7813" y="65.1436">WidgetDispatcher</text><line style="stroke:#181818;stroke-width:0.5;" x1="927.5" x2="1255.0293" y1="76.2969" y2="76.2969"/><text fill="#000000" font-family="sans-serif" font-size="14" lengthAdjust="spacing" textLength="166.708" x="932.5" y="93.292">-repo: ObjectRepository</text><text fill="#000000" font-family="sans-serif" font-size="14" lengthAdjust="spacing" textLength="124.7969" x="932.5" y="109.5889">-adapter: Adapter</text><line style="stroke:#181818;stroke-width:0.5;" x1="927.5" x2="1255.0293" y1="116.8906" y2="116.8906"/><text fill="#000000" font-family="sans-serif" font-size="14" lengthAdjust="spacing" textLength="144.5869" x="932.5" y="133.8857">+click(name: String)</text><text fill="#000000" font-family="sans-serif" font-size="14" lengthAdjust="spacing" textLength="272.3232" x="932.5" y="150.1826">+setValue(name: String, value: String)</text><text fill="#000000" font-family="sans-serif" font-size="14" lengthAdjust="spacing" textLength="317.5293" x="932.5" y="166.4795">+verifyValue(name: String, expected: String)</text></g><!--class Adapter--><g class="entity" data-entity="Adapter" data-source-line="26" data-uid="ent0006" id="entity_Adapter"><rect fill="#F1F1F1" height="96.8906" rx="2.5" ry="2.5" style="stroke:#181818;stroke-width:0.5;" width="293.1621" x="843" y="471.2969"/><ellipse cx="957.437" cy="487.2969" fill="#B4A7E5" rx="11" ry="11" style="stroke:#181818;stroke-width:1;"/><path d="M953.3589,483.0625 L953.3589,480.9063 L960.7495,480.9063 L960.7495,483.0625 L958.2808,483.0625 L958.2808,491.1406 L960.7495,491.1406 L960.7495,493.2969 L953.3589,493.2969 L953.3589,491.1406 L955.8276,491.1406 L955.8276,483.0625 L953.3589,483.0625 Z " fill="#000000"/><text fill="#000000" font-family="sans-serif" font-size="14" font-style="italic" lengthAdjust="spacing" textLength="55.7881" x="977.937" y="492.1436">Adapter</text><line style="stroke:#181818;stroke-width:0.5;" x1="844" x2="1135.1621" y1="503.2969" y2="503.2969"/><line style="stroke:#181818;stroke-width:0.5;" x1="844" x2="1135.1621" y1="511.2969" y2="511.2969"/><text fill="#000000" font-family="sans-serif" font-size="14" lengthAdjust="spacing" textLength="153.4258" x="849" y="528.292">+click(locator: String)</text><text fill="#000000" font-family="sans-serif" font-size="14" lengthAdjust="spacing" textLength="281.1621" x="849" y="544.5889">+setValue(locator: String, value: String)</text><text fill="#000000" font-family="sans-serif" font-size="14" lengthAdjust="spacing" textLength="235.6143" x="849" y="560.8857">+getValue(locator: String): String</text></g><!--class JavaRPCAdapter--><g class="entity" data-entity="JavaRPCAdapter" data-source-line="35" data-uid="ent0008" id="entity_JavaRPCAdapter"><rect fill="#F1F1F1" height="48" rx="2.5" ry="2.5" style="stroke:#181818;stroke-width:0.5;" width="145.3057" x="600" y="640.7969"/><ellipse cx="615" cy="656.7969" fill="#ADD1B2" rx="11" ry="11" style="stroke:#181818;stroke-width:1;"/><path d="M617.9688,662.4375 Q617.3906,662.7344 616.75,662.875 Q616.1094,663.0313 615.4063,663.0313 Q612.9063,663.0313 611.5781,661.3906 Q610.2656,659.7344 610.2656,656.6094 Q610.2656,653.4844 611.5781,651.8281 Q612.9063,650.1719 615.4063,650.1719 Q616.1094,650.1719 616.75,650.3281 Q617.4063,650.4844 617.9688,650.7813 L617.9688,653.5 Q617.3438,652.9219 616.75,652.6563 Q616.1563,652.375 615.5313,652.375 Q614.1875,652.375 613.5,653.4531 Q612.8125,654.5156 612.8125,656.6094 Q612.8125,658.7031 613.5,659.7813 Q614.1875,660.8438 615.5313,660.8438 Q616.1563,660.8438 616.75,660.5781 Q617.3438,660.2969 617.9688,659.7188 L617.9688,662.4375 Z " fill="#000000"/><text fill="#000000" font-family="sans-serif" font-size="14" lengthAdjust="spacing" textLength="113.3057" x="629" y="661.6436">JavaRPCAdapter</text><line style="stroke:#181818;stroke-width:0.5;" x1="601" x2="744.3057" y1="672.7969" y2="672.7969"/><line style="stroke:#181818;stroke-width:0.5;" x1="601" x2="744.3057" y1="680.7969" y2="680.7969"/></g><!--class WebDriverAdapter--><g class="entity" data-entity="WebDriverAdapter" data-source-line="36" data-uid="ent0010" id="entity_WebDriverAdapter"><rect fill="#F1F1F1" height="48" rx="2.5" ry="2.5" style="stroke:#181818;stroke-width:0.5;" width="162.2109" x="780.5" y="640.7969"/><ellipse cx="795.5" cy="656.7969" fill="#ADD1B2" rx="11" ry="11" style="stroke:#181818;stroke-width:1;"/><path d="M798.4688,662.4375 Q797.8906,662.7344 797.25,662.875 Q796.6094,663.0313 795.9063,663.0313 Q793.4063,663.0313 792.0781,661.3906 Q790.7656,659.7344 790.7656,656.6094 Q790.7656,653.4844 792.0781,651.8281 Q793.4063,650.1719 795.9063,650.1719 Q796.6094,650.1719 797.25,650.3281 Q797.9063,650.4844 798.4688,650.7813 L798.4688,653.5 Q797.8438,652.9219 797.25,652.6563 Q796.6563,652.375 796.0313,652.375 Q794.6875,652.375 794,653.4531 Q793.3125,654.5156 793.3125,656.6094 Q793.3125,658.7031 794,659.7813 Q794.6875,660.8438 796.0313,660.8438 Q796.6563,660.8438 797.25,660.5781 Q797.8438,660.2969 798.4688,659.7188 L798.4688,662.4375 Z " fill="#000000"/><text fill="#000000" font-family="sans-serif" font-size="14" lengthAdjust="spacing" textLength="130.2109" x="809.5" y="661.6436">WebDriverAdapter</text><line style="stroke:#181818;stroke-width:0.5;" x1="781.5" x2="941.7109" y1="672.7969" y2="672.7969"/><line style="stroke:#181818;stroke-width:0.5;" x1="781.5" x2="941.7109" y1="680.7969" y2="680.7969"/></g><!--class BaseWidget--><g class="entity" data-entity="BaseWidget" data-source-line="39" data-uid="ent0012" id="entity_BaseWidget"><rect fill="#F1F1F1" height="129.4844" rx="2.5" ry="2.5" style="stroke:#181818;stroke-width:0.5;" width="338.3682" x="1171.5" y="265.2969"/><ellipse cx="1294.5845" cy="281.2969" fill="#A9DCDF" rx="11" ry="11" style="stroke:#181818;stroke-width:1;"/><path d="M1294.6938,276.6406 L1293.5376,281.7188 L1295.8657,281.7188 L1294.6938,276.6406 Z M1293.2095,274.4063 L1296.1938,274.4063 L1299.5532,286.7969 L1297.1001,286.7969 L1296.3345,283.7344 L1293.0532,283.7344 L1292.3032,286.7969 L1289.8657,286.7969 L1293.2095,274.4063 Z " fill="#000000"/><text fill="#000000" font-family="sans-serif" font-size="14" font-style="italic" lengthAdjust="spacing" textLength="83.6992" x="1315.0845" y="286.1436">BaseWidget</text><line style="stroke:#181818;stroke-width:0.5;" x1="1172.5" x2="1508.8682" y1="297.2969" y2="297.2969"/><text fill="#000000" font-family="sans-serif" font-size="14" lengthAdjust="spacing" textLength="131.4756" x="1177.5" y="314.292">#adapter: Adapter</text><line style="stroke:#181818;stroke-width:0.5;" x1="1172.5" x2="1508.8682" y1="321.5938" y2="321.5938"/><text fill="#000000" font-family="sans-serif" font-size="14" lengthAdjust="spacing" textLength="153.4258" x="1177.5" y="338.5889">+click(locator: String)</text><text fill="#000000" font-family="sans-serif" font-size="14" lengthAdjust="spacing" textLength="281.1621" x="1177.5" y="354.8857">+setValue(locator: String, value: String)</text><text fill="#000000" font-family="sans-serif" font-size="14" lengthAdjust="spacing" textLength="235.6143" x="1177.5" y="371.1826">+getValue(locator: String): String</text><text fill="#000000" font-family="sans-serif" font-size="14" lengthAdjust="spacing" textLength="326.3682" x="1177.5" y="387.4795">+verifyValue(locator: String, expected: String)</text></g><!--class Button--><g class="entity" data-entity="Button" data-source-line="47" data-uid="ent0013" id="entity_Button"><rect fill="#F1F1F1" height="64.2969" rx="2.5" ry="2.5" style="stroke:#181818;stroke-width:0.5;" width="165.4258" x="1258" y="487.7969"/><ellipse cx="1313.0156" cy="503.7969" fill="#ADD1B2" rx="11" ry="11" style="stroke:#181818;stroke-width:1;"/><path d="M1315.9844,509.4375 Q1315.4063,509.7344 1314.7656,509.875 Q1314.125,510.0313 1313.4219,510.0313 Q1310.9219,510.0313 1309.5938,508.3906 Q1308.2813,506.7344 1308.2813,503.6094 Q1308.2813,500.4844 1309.5938,498.8281 Q1310.9219,497.1719 1313.4219,497.1719 Q1314.125,497.1719 1314.7656,497.3281 Q1315.4219,497.4844 1315.9844,497.7813 L1315.9844,500.5 Q1315.3594,499.9219 1314.7656,499.6563 Q1314.1719,499.375 1313.5469,499.375 Q1312.2031,499.375 1311.5156,500.4531 Q1310.8281,501.5156 1310.8281,503.6094 Q1310.8281,505.7031 1311.5156,506.7813 Q1312.2031,507.8438 1313.5469,507.8438 Q1314.1719,507.8438 1314.7656,507.5781 Q1315.3594,507.2969 1315.9844,506.7188 L1315.9844,509.4375 Z " fill="#000000"/><text fill="#000000" font-family="sans-serif" font-size="14" lengthAdjust="spacing" textLength="46.8945" x="1333.5156" y="508.6436">Button</text><line style="stroke:#181818;stroke-width:0.5;" x1="1259" x2="1422.4258" y1="519.7969" y2="519.7969"/><line style="stroke:#181818;stroke-width:0.5;" x1="1259" x2="1422.4258" y1="527.7969" y2="527.7969"/><text fill="#000000" font-family="sans-serif" font-size="14" lengthAdjust="spacing" textLength="153.4258" x="1264" y="544.792">+click(locator: String)</text></g><!--class TextField--><g class="entity" data-entity="TextField" data-source-line="51" data-uid="ent0015" id="entity_TextField"><rect fill="#F1F1F1" height="80.5938" rx="2.5" ry="2.5" style="stroke:#181818;stroke-width:0.5;" width="293.1621" x="1458" y="479.2969"/><ellipse cx="1568.1953" cy="495.2969" fill="#ADD1B2" rx="11" ry="11" style="stroke:#181818;stroke-width:1;"/><path d="M1571.1641,500.9375 Q1570.5859,501.2344 1569.9453,501.375 Q1569.3047,501.5313 1568.6016,501.5313 Q1566.1016,501.5313 1564.7734,499.8906 Q1563.4609,498.2344 1563.4609,495.1094 Q1563.4609,491.9844 1564.7734,490.3281 Q1566.1016,488.6719 1568.6016,488.6719 Q1569.3047,488.6719 1569.9453,488.8281 Q1570.6016,488.9844 1571.1641,489.2813 L1571.1641,492 Q1570.5391,491.4219 1569.9453,491.1563 Q1569.3516,490.875 1568.7266,490.875 Q1567.3828,490.875 1566.6953,491.9531 Q1566.0078,493.0156 1566.0078,495.1094 Q1566.0078,497.2031 1566.6953,498.2813 Q1567.3828,499.3438 1568.7266,499.3438 Q1569.3516,499.3438 1569.9453,499.0781 Q1570.5391,498.7969 1571.1641,498.2188 L1571.1641,500.9375 Z " fill="#000000"/><text fill="#000000" font-family="sans-serif" font-size="14" lengthAdjust="spacing" textLength="64.2715" x="1588.6953" y="500.1436">TextField</text><line style="stroke:#181818;stroke-width:0.5;" x1="1459" x2="1750.1621" y1="511.2969" y2="511.2969"/><line style="stroke:#181818;stroke-width:0.5;" x1="1459" x2="1750.1621" y1="519.2969" y2="519.2969"/><text fill="#000000" font-family="sans-serif" font-size="14" lengthAdjust="spacing" textLength="281.1621" x="1464" y="536.292">+setValue(locator: String, value: String)</text><text fill="#000000" font-family="sans-serif" font-size="14" lengthAdjust="spacing" textLength="235.6143" x="1464" y="552.5889">+getValue(locator: String): String</text></g><!--class CustomButton--><g class="entity" data-entity="CustomButton" data-source-line="57" data-uid="ent0017" id="entity_CustomButton"><rect fill="#F1F1F1" height="64.2969" rx="2.5" ry="2.5" style="stroke:#181818;stroke-width:0.5;" width="420.9941" x="1292" y="632.7969"/><ellipse cx="1447.9824" cy="648.7969" fill="#ADD1B2" rx="11" ry="11" style="stroke:#181818;stroke-width:1;"/><path d="M1450.9512,654.4375 Q1450.373,654.7344 1449.7324,654.875 Q1449.0918,655.0313 1448.3887,655.0313 Q1445.8887,655.0313 1444.5605,653.3906 Q1443.248,651.7344 1443.248,648.6094 Q1443.248,645.4844 1444.5605,643.8281 Q1445.8887,642.1719 1448.3887,642.1719 Q1449.0918,642.1719 1449.7324,642.3281 Q1450.3887,642.4844 1450.9512,642.7813 L1450.9512,645.5 Q1450.3262,644.9219 1449.7324,644.6563 Q1449.1387,644.375 1448.5137,644.375 Q1447.1699,644.375 1446.4824,645.4531 Q1445.7949,646.5156 1445.7949,648.6094 Q1445.7949,650.7031 1446.4824,651.7813 Q1447.1699,652.8438 1448.5137,652.8438 Q1449.1387,652.8438 1449.7324,652.5781 Q1450.3262,652.2969 1450.9512,651.7188 L1450.9512,654.4375 Z " fill="#000000"/><text fill="#000000" font-family="sans-serif" font-size="14" lengthAdjust="spacing" textLength="100.5293" x="1468.4824" y="653.6436">CustomButton</text><line style="stroke:#181818;stroke-width:0.5;" x1="1293" x2="1711.9941" y1="664.7969" y2="664.7969"/><line style="stroke:#181818;stroke-width:0.5;" x1="1293" x2="1711.9941" y1="672.7969" y2="672.7969"/><text fill="#000000" font-family="sans-serif" font-size="14" lengthAdjust="spacing" textLength="408.9941" x="1298" y="689.792">+click(locator: String)  ' &#252;berschreibt z. B. mit Retry/Focus</text></g><g class="entity" data-entity="GMN21" data-source-line="66" data-uid="ent0022" id="entity_GMN21"><path d="M551.5,73.2969 L551.5,104.7969 L516.21,108.7969 L551.5,112.7969 L551.5,143.8281 A0,0 0 0 0 551.5,143.8281 L891.2285,143.8281 A0,0 0 0 0 891.2285,143.8281 L891.2285,83.2969 L881.2285,73.2969 L551.5,73.2969 A0,0 0 0 0 551.5,73.2969" fill="#FEFFDD" style="stroke:#181818;stroke-width:0.5;"/><path d="M881.2285,73.2969 L881.2285,83.2969 L891.2285,83.2969 L881.2285,73.2969" fill="#FEFFDD" style="stroke:#181818;stroke-width:0.5;"/><text fill="#000000" font-family="sans-serif" font-size="13" lengthAdjust="spacing" textLength="213.751" x="557.5" y="90.3638">&#8222;Heilige Dreifaltigkeit&#8220; je Objekt:</text><text fill="#000000" font-family="sans-serif" font-size="13" lengthAdjust="spacing" textLength="190.1313" x="557.5" y="105.4966">1) Abstrakter Lokator (name)</text><text fill="#000000" font-family="sans-serif" font-size="13" lengthAdjust="spacing" textLength="194.0732" x="557.5" y="120.6294">2) Konkreter Lokator (locator)</text><text fill="#000000" font-family="sans-serif" font-size="13" lengthAdjust="spacing" textLength="318.7285" x="557.5" y="135.7622">3) Interaktion = Widget-Klasse (interactionClass)</text></g><g class="entity" data-entity="GMN24" data-source-line="73" data-uid="ent0025" id="entity_GMN24"><path d="M1545,286.7969 L1545,372.4609 L1881.5356,372.4609 L1881.5356,296.7969 L1871.5356,286.7969 L1545,286.7969" fill="#FEFFDD" style="stroke:#181818;stroke-width:0.5;"/><path d="M1871.5356,286.7969 L1871.5356,296.7969 L1881.5356,296.7969 L1871.5356,286.7969" fill="#FEFFDD" style="stroke:#181818;stroke-width:1;"/><text fill="#000000" font-family="sans-serif" font-size="13" lengthAdjust="spacing" textLength="45.9189" x="1551" y="303.8638">Ablauf:</text><text fill="#000000" font-family="sans-serif" font-size="13" lengthAdjust="spacing" textLength="261.2568" x="1551" y="318.9966">1) Descriptor holen (name &#8594; descriptor)</text><text fill="#000000" font-family="sans-serif" font-size="13" lengthAdjust="spacing" textLength="315.5356" x="1551" y="334.1294">2) Widget-Klasse aus descriptor.interactionClass</text><text fill="#000000" font-family="sans-serif" font-size="13" lengthAdjust="spacing" textLength="270.8862" x="1551" y="349.2622">3) Widget-Instanz erzeugen (mit adapter)</text><text fill="#000000" font-family="sans-serif" font-size="13" lengthAdjust="spacing" textLength="266.0303" x="1551" y="364.395">4) Methodenaufruf mit descriptor.locator</text></g><g class="entity" data-entity="GMN27" data-source-line="81" data-uid="ent0028" id="entity_GMN27"><path d="M978,629.2969 L978,699.8281 A0,0 0 0 0 978,699.8281 L1256.5181,699.8281 A0,0 0 0 0 1256.5181,699.8281 L1256.5181,639.2969 L1246.5181,629.2969 L1090.4,629.2969 L1032.12,568.4169 L1082.4,629.2969 L978,629.2969 A0,0 0 0 0 978,629.2969" fill="#FEFFDD" style="stroke:#181818;stroke-width:0.5;"/><path d="M1246.5181,629.2969 L1246.5181,639.2969 L1256.5181,639.2969 L1246.5181,629.2969" fill="#FEFFDD" style="stroke:#181818;stroke-width:0.5;"/><text fill="#000000" font-family="sans-serif" font-size="13" lengthAdjust="spacing" textLength="204.3691" x="984" y="646.3638">Adapter kapseln Treiberdetails.</text><text fill="#000000" font-family="sans-serif" font-size="13" lengthAdjust="spacing" textLength="63.1528" x="984" y="661.4966">Beispiele:</text><text fill="#000000" font-family="sans-serif" font-size="13" lengthAdjust="spacing" textLength="257.5181" x="984" y="676.6294">- JavaRPCAdapter (Swing via JSON-RPC)</text><text fill="#000000" font-family="sans-serif" font-size="13" lengthAdjust="spacing" textLength="196.9741" x="984" y="691.7622">- WebDriverAdapter (Browser)</text></g><!--link WidgetDispatcher to ObjectRepository--><g class="link" data-entity-1="WidgetDispatcher" data-entity-2="ObjectRepository" data-source-line="25" data-uid="lnk5" id="link_WidgetDispatcher_ObjectRepository"><path codeLine="25" d="M926.28,168.6069 C880.61,185.2569 842.12,199.8369 837.5,203.2969 C803.75,228.5769 779.6579,264.2323 763.6079,292.4323" fill="none" id="WidgetDispatcher-to-ObjectRepository" style="stroke:#181818;stroke-width:1;"/><polygon fill="#181818" points="760.64,297.6469,768.5682,291.8036,763.1132,293.3014,761.6154,287.8464,760.64,297.6469" style="stroke:#181818;stroke-width:1;"/><text fill="#000000" font-family="sans-serif" font-size="13" lengthAdjust="spacing" textLength="94.3833" x="853.7566" y="216.3638">resolve(name)</text><text fill="#000000" font-family="sans-serif" font-size="13" lengthAdjust="spacing" textLength="124.8965" x="838.5" y="231.4966">&#8594; ObjectDescriptor</text></g><!--link WidgetDispatcher to Adapter--><g class="link" data-entity-1="WidgetDispatcher" data-entity-2="Adapter" data-source-line="26" data-uid="lnk7" id="link_WidgetDispatcher_Adapter"><path codeLine="26" d="M1048.44,173.6369 C1032.38,200.7369 1015.8,233.3969 1006.5,265.2969 C986.26,334.7469 984.7731,413.2501 986.4731,465.0201" fill="none" id="WidgetDispatcher-to-Adapter" style="stroke:#181818;stroke-width:1;"/><polygon fill="#181818" points="986.67,471.0169,990.3725,461.8904,986.5059,466.0196,982.3768,462.153,986.67,471.0169" style="stroke:#181818;stroke-width:1;"/><text fill="#000000" font-family="sans-serif" font-size="13" lengthAdjust="spacing" textLength="110.1636" x="1024.9497" y="326.8638">delegiert Aufrufe</text><text fill="#000000" font-family="sans-serif" font-size="13" lengthAdjust="spacing" textLength="145.063" x="1007.5" y="341.9966">mit konkretem locator</text></g><!--reverse link Adapter to JavaRPCAdapter--><g class="link" data-entity-1="Adapter" data-entity-2="JavaRPCAdapter" data-source-line="35" data-uid="lnk9" id="link_Adapter_JavaRPCAdapter"><path d="M867.532,575.818 C813.682,600.108 767.03,621.1569 723.87,640.6169" fill="none" id="Adapter-backto-JavaRPCAdapter" style="stroke:#181818;stroke-width:1;stroke-dasharray:7.0,7.0;"/><polygon fill="none" points="883.94,568.4169,865.0649,570.3487,869.999,581.2873,883.94,568.4169" style="stroke:#181818;stroke-width:1;"/></g><!--reverse link Adapter to WebDriverAdapter--><g class="link" data-entity-1="Adapter" data-entity-2="WebDriverAdapter" data-source-line="36" data-uid="lnk11" id="link_Adapter_WebDriverAdapter"><path d="M934.8751,581.8289 C913.2051,606.0389 899.84,620.9669 882.42,640.4269" fill="none" id="Adapter-backto-WebDriverAdapter" style="stroke:#181818;stroke-width:1;stroke-dasharray:7.0,7.0;"/><polygon fill="none" points="946.88,568.4169,930.4044,577.8273,939.3458,585.8305,946.88,568.4169" style="stroke:#181818;stroke-width:1;"/></g><!--reverse link BaseWidget to Button--><g class="link" data-entity-1="BaseWidget" data-entity-2="Button" data-source-line="48" data-uid="lnk14" id="link_BaseWidget_Button"><path d="M1340.5,412.4469 C1340.5,443.8669 1340.5,462.3669 1340.5,487.6569" fill="none" id="BaseWidget-backto-Button" style="stroke:#181818;stroke-width:1;"/><polygon fill="none" points="1340.5,394.4469,1334.5,412.4469,1346.5,412.4469,1340.5,394.4469" style="stroke:#181818;stroke-width:1;"/></g><!--reverse link BaseWidget to TextField--><g class="link" data-entity-1="BaseWidget" data-entity-2="TextField" data-source-line="52" data-uid="lnk16" id="link_BaseWidget_TextField"><path d="M1444.5431,404.8869 C1483.8831,432.8969 1514.22,454.5069 1548.68,479.0469" fill="none" id="BaseWidget-backto-TextField" style="stroke:#181818;stroke-width:1;"/><polygon fill="none" points="1429.88,394.4469,1441.063,409.7746,1448.0231,399.9993,1429.88,394.4469" style="stroke:#181818;stroke-width:1;"/></g><!--reverse link Button to CustomButton--><g class="link" data-entity-1="Button" data-entity-2="CustomButton" data-source-line="58" data-uid="lnk18" id="link_Button_CustomButton"><path d="M1389.1456,563.7377 C1416.2256,587.6377 1440.01,608.6269 1467.14,632.5869" fill="none" id="Button-backto-CustomButton" style="stroke:#181818;stroke-width:1;"/><polygon fill="none" points="1375.65,551.8269,1385.1753,568.2363,1393.1159,559.2392,1375.65,551.8269" style="stroke:#181818;stroke-width:1;"/></g><!--link WidgetDispatcher to BaseWidget--><g class="link" data-entity-1="WidgetDispatcher" data-entity-2="BaseWidget" data-source-line="62" data-uid="lnk19" id="link_WidgetDispatcher_BaseWidget"><path codeLine="62" d="M1163.86,173.4369 C1196.59,202.2269 1230.6944,232.2246 1263.4544,261.0346" fill="none" id="WidgetDispatcher-to-BaseWidget" style="stroke:#181818;stroke-width:1;stroke-dasharray:7.0,7.0;"/><polygon fill="#181818" points="1267.96,264.9969,1263.8432,256.0497,1264.2054,261.695,1258.5601,262.0571,1267.96,264.9969" style="stroke:#181818;stroke-width:1;"/><text fill="#000000" font-family="sans-serif" font-size="13" lengthAdjust="spacing" textLength="94.5293" x="1306.5422" y="216.3638">instanziert per</text><text fill="#000000" font-family="sans-serif" font-size="13" lengthAdjust="spacing" textLength="242.6138" x="1232.5" y="231.4966">interactionClass (Reflektion/Registry)</text></g><!--link BaseWidget to Adapter--><g class="link" data-entity-1="BaseWidget" data-entity-2="Adapter" data-source-line="63" data-uid="lnk20" id="link_BaseWidget_Adapter"><path codeLine="63" d="M1221.67,394.4469 C1174.73,419.5869 1127.0291,445.1339 1083.5291,468.4339" fill="none" id="BaseWidget-to-Adapter" style="stroke:#181818;stroke-width:1;"/><polygon fill="#181818" points="1078.24,471.2669,1088.0623,470.5434,1082.6476,468.906,1084.2849,463.4913,1078.24,471.2669" style="stroke:#181818;stroke-width:1;"/><text fill="#000000" font-family="sans-serif" font-size="13" lengthAdjust="spacing" textLength="33.4966" x="1166.5" y="437.3638">nutzt</text></g><!--link WidgetDispatcher to GMN24--><g class="link" data-entity-1="WidgetDispatcher" data-entity-2="GMN24" data-source-line="73" data-uid="lnk26" id="link_WidgetDispatcher_GMN24"><path d="M1256.55,138.9969 C1327.68,154.1669 1411.01,175.4469 1483.5,203.2969 C1541.25,225.4869 1602.55,259.5169 1647.33,286.5469" fill="none" id="WidgetDispatcher-GMN24" style="stroke:#181818;stroke-width:1;stroke-dasharray:7.0,7.0;"/></g><!--SRC=[lLR1Rjiu4BtpAmPPeBQmiRtRzYHW2zZ91atJRWAxsBP0BhGqibZHf41IJkD5WPpw0JqNFUvNx6t_95-oGqbMP2d9gLYVR78uVE_DpADj9bJE3L-3JNcihuHQGSAbHMQRdKXoQwVE6R4i79v6MYt45k4NveIJ2ETdxvxFzL8x6C6P3qNrxpzBD5P4gGlXdOXNwEmXJ6EUErg69t1xy_qb2YbM2CS61Lten2f3uMvllZ4sWD_y1pvCtxo62PmlFsBcfB0EgmrM0YhN8tUCDZ8YTzh0NmpWPyNN6CA2m1AJpcS0V6cTuHd1WDSwutJAdv4wyb_lFJQ0JAlCOEi83DzVS9TEZXQBoVpYQFIIgrZYvFRcxy1d4ufYUUI4LaSUQ3lj0BPZc8tXO5OufzN18HmS5TRfTVsRVMPxxEQOQolepkkA7IbvHtZOvXg4FK5yifsMnyBct4KfiPZ02Q7pATjgLcLgXPNtHL94sVuzVjcY-vFB0lTs3c7Zr_O2DsX4SdrVB7xA2Ip6xV2H8RfXZxhVuLNpXBikyjnwa4UZ5ttTGZ1ejTnK089BTVlbQr-gUtFLTr6A62Mk11e7qo8nHOANQYrSqnfhg5leJl3wx6WHfNuEQgtBtaXuX4tkbioTDjnNkhDvdzYh1sA3tPUxxdh5DvnQTmT2h7E9QrJEDlhMNO7BOoEeYez4DfGh3JkCgucBNEKYCECMgxYI-K-zklwFQdJwivUptwADVjMuKeH35VTOFSIWEVwM3fu8bF636NvutGTmORGtKflZLYJ2KfTx7_xz4vNdgZ2szDuANjkIxX1MFn_Xv-sjSlue9LTVkjhi_AJCqPdhoOcE2jksfHbXmRHGArHrl_G6SJn-qLOd1A6iusfRJcEEvb9r3HU6SqmaKQM5oPpcbZhmEc2j9Fl3hGgtTOmfJG-C4IjgNPtq7UAnDmi-OlrCXUpN0AQzLmOgys5F0pZhFoUra05x5i1fIQR43ir8LSyg3BjC0qQb0G-yXa-lC5NEu-_goAPBoOkanDTwCrCjIVeI7NXZZ9kj4kp-_RomhO1n5us7NnyuhMe4QBPO-E8EVHFKmnwmvm6yGPVg61Kl_RJiaLRgdPq-I6zd5xigPZotA1MyzOs79aR7XRHZDaDIW2ODGpRgkjvmKVxTsGWEhnRdVuneAw2edkSDPqPVMOzx1-S_]--></g></svg>