<svg xmlns="http://www.w3.org/2000/svg" xmlns:xlink="http://www.w3.org/1999/xlink" contentStyleType="text/css" data-diagram-type="DESCRIPTION" height="1131px" preserveAspectRatio="none" style="width:1557px;height:1131px;background:#FFFFFF;" version="1.1" viewBox="0 0 1557 1131" width="1557px" zoomAndPan="magnify"><title>OKW4Robot - Architektur (Komponenten) mit &#8222;Heiliger Dreifaltigkeit&#8220;</title><defs/><g><g class="title" data-source-line="6"><text fill="#000000" font-family="sans-serif" font-size="14" font-weight="bold" lengthAdjust="spacing" textLength="554.1348" x="494.5581" y="22.9951">OKW4Robot - Architektur (Komponenten) mit &#8222;Heiliger Dreifaltigkeit&#8220;</text></g><!--cluster RF--><g class="cluster" data-entity="RF" data-source-line="8" data-uid="ent0002" id="cluster_RF"><path d="M468.5,43.2969 L609.8691,43.2969 A3.75,3.75 0 0 1 612.3691,45.7969 L619.3691,65.5938 L671.5,65.5938 A2.5,2.5 0 0 1 674,68.0938 L674,274.7969 A2.5,2.5 0 0 1 671.5,277.2969 L468.5,277.2969 A2.5,2.5 0 0 1 466,274.7969 L466,45.7969 A2.5,2.5 0 0 1 468.5,43.2969" fill="none" style="stroke:#000000;stroke-width:1.5;"/><line style="stroke:#000000;stroke-width:1.5;" x1="466" x2="619.3691" y1="65.5938" y2="65.5938"/><text fill="#000000" font-family="sans-serif" font-size="14" font-weight="bold" lengthAdjust="spacing" textLength="140.3691" x="470" y="58.292">Robot Framework</text></g><!--cluster OKW--><g class="cluster" data-entity="OKW" data-source-line="13" data-uid="ent0005" id="cluster_OKW"><path d="M8.5,334.2969 L96.46,334.2969 A3.75,3.75 0 0 1 98.96,336.7969 L105.96,356.5938 L559.5,356.5938 A2.5,2.5 0 0 1 562,359.0938 L562,674.7969 A2.5,2.5 0 0 1 559.5,677.2969 L8.5,677.2969 A2.5,2.5 0 0 1 6,674.7969 L6,336.7969 A2.5,2.5 0 0 1 8.5,334.2969" fill="none" style="stroke:#000000;stroke-width:1.5;"/><line style="stroke:#000000;stroke-width:1.5;" x1="6" x2="105.96" y1="356.5938" y2="356.5938"/><text fill="#000000" font-family="sans-serif" font-size="14" font-weight="bold" lengthAdjust="spacing" textLength="86.96" x="10" y="349.292">OKW Layer</text></g><!--cluster ADP--><g class="cluster" data-entity="ADP" data-source-line="18" data-uid="ent0008" id="cluster_ADP"><path d="M596.5,573.7969 L724.833,573.7969 A3.75,3.75 0 0 1 727.333,576.2969 L734.333,596.0938 L1020.5,596.0938 A2.5,2.5 0 0 1 1023,598.5938 L1023,658.2969 A2.5,2.5 0 0 1 1020.5,660.7969 L596.5,660.7969 A2.5,2.5 0 0 1 594,658.2969 L594,576.2969 A2.5,2.5 0 0 1 596.5,573.7969" fill="none" style="stroke:#000000;stroke-width:1.5;"/><line style="stroke:#000000;stroke-width:1.5;" x1="594" x2="734.333" y1="596.0938" y2="596.0938"/><text fill="#000000" font-family="sans-serif" font-size="14" font-weight="bold" lengthAdjust="spacing" textLength="127.333" x="598" y="588.792">Adapter-Schicht</text></g><!--cluster DRV--><g class="cluster" data-entity="DRV" data-source-line="23" data-uid="ent0011" id="cluster_DRV"><path d="M634.5,754.2969 L831.7393,754.2969 A3.75,3.75 0 0 1 834.2393,756.7969 L841.2393,776.5938 L968.5,776.5938 A2.5,2.5 0 0 1 971,779.0938 L971,838.7969 A2.5,2.5 0 0 1 968.5,841.2969 L634.5,841.2969 A2.5,2.5 0 0 1 632,838.7969 L632,756.7969 A2.5,2.5 0 0 1 634.5,754.2969" fill="none" style="stroke:#000000;stroke-width:1.5;"/><line style="stroke:#000000;stroke-width:1.5;" x1="632" x2="841.2393" y1="776.5938" y2="776.5938"/><text fill="#000000" font-family="sans-serif" font-size="14" font-weight="bold" lengthAdjust="spacing" textLength="196.2393" x="636" y="769.292">Treiber / Kommunikation</text></g><!--cluster AUT--><g class="cluster" data-entity="AUT" data-source-line="28" data-uid="ent0014" id="cluster_AUT"><path d="M619.5,890.2969 L752.9258,890.2969 A3.75,3.75 0 0 1 755.4258,892.7969 L762.4258,912.5938 L813.5,912.5938 A2.5,2.5 0 0 1 816,915.0938 L816,1121.7969 A2.5,2.5 0 0 1 813.5,1124.2969 L619.5,1124.2969 A2.5,2.5 0 0 1 617,1121.7969 L617,892.7969 A2.5,2.5 0 0 1 619.5,890.2969" fill="none" style="stroke:#000000;stroke-width:1.5;"/><line style="stroke:#000000;stroke-width:1.5;" x1="617" x2="762.4258" y1="912.5938" y2="912.5938"/><text fill="#000000" font-family="sans-serif" font-size="14" font-weight="bold" lengthAdjust="spacing" textLength="132.4258" x="621" y="905.292">AUT / Zielsystem</text></g><!--entity Tests--><g class="entity" data-entity="Tests" data-source-line="9" data-uid="ent0003" id="entity_Tests"><rect fill="#F1F1F1" height="52.5938" rx="2.5" ry="2.5" style="stroke:#181818;stroke-width:0.5;" width="97.4443" x="492.5" y="78.2969"/><text fill="#000000" font-family="sans-serif" font-size="14" lengthAdjust="spacing" textLength="29.9482" x="502.5" y="101.292">Test</text><text fill="#000000" font-family="sans-serif" font-size="14" lengthAdjust="spacing" textLength="4.4502" x="532.4482" y="101.292">&#160;</text><text fill="#000000" font-family="sans-serif" font-size="14" lengthAdjust="spacing" textLength="43.0459" x="536.8984" y="101.292">Suites</text><text fill="#000000" font-family="sans-serif" font-size="14" lengthAdjust="spacing" textLength="52.6367" x="514.9038" y="117.5889">(.robot)</text></g><!--entity KW--><g class="entity" data-entity="KW" data-source-line="10" data-uid="ent0004" id="entity_KW"><rect fill="#F1F1F1" height="52.5938" rx="2.5" ry="2.5" style="stroke:#181818;stroke-width:0.5;" width="176.666" x="481.5" y="208.2969"/><text fill="#000000" font-family="sans-serif" font-size="14" lengthAdjust="spacing" textLength="84.1846" x="491.5" y="231.292">OKW4Robot</text><text fill="#000000" font-family="sans-serif" font-size="14" lengthAdjust="spacing" textLength="4.4502" x="575.6846" y="231.292">&#160;</text><text fill="#000000" font-family="sans-serif" font-size="14" lengthAdjust="spacing" textLength="68.0313" x="580.1348" y="231.292">Keywords</text><text fill="#000000" font-family="sans-serif" font-size="14" lengthAdjust="spacing" textLength="59.4521" x="540.1069" y="247.5889">(Python)</text></g><!--entity Widgets--><g class="entity" data-entity="Widgets" data-source-line="14" data-uid="ent0006" id="entity_Widgets"><rect fill="#F1F1F1" height="52.5938" rx="2.5" ry="2.5" style="stroke:#181818;stroke-width:0.5;" width="195.0889" x="323.5" y="377.2969"/><text fill="#000000" font-family="sans-serif" font-size="14" lengthAdjust="spacing" textLength="56.9023" x="350.6582" y="400.292">Widgets</text><text fill="#000000" font-family="sans-serif" font-size="14" lengthAdjust="spacing" textLength="4.4502" x="407.5605" y="400.292">&#160;</text><text fill="#000000" font-family="sans-serif" font-size="14" lengthAdjust="spacing" textLength="79.4199" x="412.0107" y="400.292">(generisch)</text><text fill="#000000" font-family="sans-serif" font-size="14" lengthAdjust="spacing" textLength="22.1484" x="333.5" y="416.5889">API</text><text fill="#000000" font-family="sans-serif" font-size="14" lengthAdjust="spacing" textLength="4.4502" x="355.6484" y="416.5889">&#160;</text><text fill="#000000" font-family="sans-serif" font-size="14" lengthAdjust="spacing" textLength="23.208" x="360.0986" y="416.5889">pro</text><text fill="#000000" font-family="sans-serif" font-size="14" lengthAdjust="spacing" textLength="4.4502" x="383.3066" y="416.5889">&#160;</text><text fill="#000000" font-family="sans-serif" font-size="14" lengthAdjust="spacing" textLength="120.832" x="387.7568" y="416.5889">Komponententyp</text></g><!--entity YAML--><g class="entity" data-entity="YAML" data-source-line="15" data-uid="ent0007" id="entity_YAML"><rect fill="#F1F1F1" height="52.5938" rx="2.5" ry="2.5" style="stroke:#181818;stroke-width:0.5;" width="178.0674" x="218" y="600.2969"/><text fill="#000000" font-family="sans-serif" font-size="14" lengthAdjust="spacing" textLength="84.0547" x="238.3154" y="623.292">Objektlisten</text><text fill="#000000" font-family="sans-serif" font-size="14" lengthAdjust="spacing" textLength="4.4502" x="322.3701" y="623.292">&#160;</text><text fill="#000000" font-family="sans-serif" font-size="14" lengthAdjust="spacing" textLength="48.9316" x="326.8203" y="623.292">(YAML)</text><text fill="#000000" font-family="sans-serif" font-size="14" lengthAdjust="spacing" textLength="55.5625" x="228" y="639.5889">&#8222;Heilige</text><text fill="#000000" font-family="sans-serif" font-size="14" lengthAdjust="spacing" textLength="4.4502" x="283.5625" y="639.5889">&#160;</text><text fill="#000000" font-family="sans-serif" font-size="14" lengthAdjust="spacing" textLength="98.0547" x="288.0127" y="639.5889">Dreifaltigkeit&#8220;</text></g><!--entity A_RPC--><g class="entity" data-entity="A_RPC" data-source-line="19" data-uid="ent0009" id="entity_A_RPC"><rect fill="#F1F1F1" height="36.2969" rx="2.5" ry="2.5" style="stroke:#181818;stroke-width:0.5;" width="142.2334" x="610" y="608.7969"/><text fill="#000000" font-family="sans-serif" font-size="14" lengthAdjust="spacing" textLength="60.5049" x="620" y="631.792">Adapter:</text><text fill="#000000" font-family="sans-serif" font-size="14" lengthAdjust="spacing" textLength="4.4502" x="680.5049" y="631.792">&#160;</text><text fill="#000000" font-family="sans-serif" font-size="14" lengthAdjust="spacing" textLength="57.2783" x="684.9551" y="631.792">javaRPC</text></g><!--entity A_WEB--><g class="entity" data-entity="A_WEB" data-source-line="20" data-uid="ent0010" id="entity_A_WEB"><rect fill="#F1F1F1" height="36.2969" rx="2.5" ry="2.5" style="stroke:#181818;stroke-width:0.5;" width="219.3701" x="787.5" y="608.7969"/><text fill="#000000" font-family="sans-serif" font-size="14" lengthAdjust="spacing" textLength="60.5049" x="797.5" y="631.792">Adapter:</text><text fill="#000000" font-family="sans-serif" font-size="14" lengthAdjust="spacing" textLength="4.4502" x="858.0049" y="631.792">&#160;</text><text fill="#000000" font-family="sans-serif" font-size="14" lengthAdjust="spacing" textLength="74.4229" x="862.4551" y="631.792">WebDriver</text><text fill="#000000" font-family="sans-serif" font-size="14" lengthAdjust="spacing" textLength="4.4502" x="936.8779" y="631.792">&#160;</text><text fill="#000000" font-family="sans-serif" font-size="14" lengthAdjust="spacing" textLength="55.542" x="941.3281" y="631.792">(sp&#228;ter)</text></g><!--entity RPC_Client--><g class="entity" data-entity="RPC_Client" data-source-line="24" data-uid="ent0012" id="entity_RPC_Client"><rect fill="#F1F1F1" height="36.2969" rx="2.5" ry="2.5" style="stroke:#181818;stroke-width:0.5;" width="132.4854" x="648" y="789.2969"/><text fill="#000000" font-family="sans-serif" font-size="14" lengthAdjust="spacing" textLength="67.5049" x="658" y="812.292">JSON-RPC</text><text fill="#000000" font-family="sans-serif" font-size="14" lengthAdjust="spacing" textLength="4.4502" x="725.5049" y="812.292">&#160;</text><text fill="#000000" font-family="sans-serif" font-size="14" lengthAdjust="spacing" textLength="40.5303" x="729.9551" y="812.292">Client</text></g><!--entity WD_Client--><g class="entity" data-entity="WD_Client" data-source-line="25" data-uid="ent0013" id="entity_WD_Client"><rect fill="#F1F1F1" height="36.2969" rx="2.5" ry="2.5" style="stroke:#181818;stroke-width:0.5;" width="139.4033" x="815.5" y="789.2969"/><text fill="#000000" font-family="sans-serif" font-size="14" lengthAdjust="spacing" textLength="74.4229" x="825.5" y="812.292">WebDriver</text><text fill="#000000" font-family="sans-serif" font-size="14" lengthAdjust="spacing" textLength="4.4502" x="899.9229" y="812.292">&#160;</text><text fill="#000000" font-family="sans-serif" font-size="14" lengthAdjust="spacing" textLength="40.5303" x="904.373" y="812.292">Client</text></g><!--entity SwingApp--><g class="entity" data-entity="SwingApp" data-source-line="29" data-uid="ent0015" id="entity_SwingApp"><rect fill="#F1F1F1" height="52.5938" rx="2.5" ry="2.5" style="stroke:#181818;stroke-width:0.5;" width="139.5605" x="633" y="1055.2969"/><text fill="#000000" font-family="sans-serif" font-size="14" lengthAdjust="spacing" textLength="29.5723" x="648.8755" y="1078.292">Java</text><text fill="#000000" font-family="sans-serif" font-size="14" lengthAdjust="spacing" textLength="4.4502" x="678.4478" y="1078.292">&#160;</text><text fill="#000000" font-family="sans-serif" font-size="14" lengthAdjust="spacing" textLength="41.9863" x="682.8979" y="1078.292">Swing</text><text fill="#000000" font-family="sans-serif" font-size="14" lengthAdjust="spacing" textLength="4.4502" x="724.8843" y="1078.292">&#160;</text><text fill="#000000" font-family="sans-serif" font-size="14" lengthAdjust="spacing" textLength="27.3506" x="729.3345" y="1078.292">App</text><text fill="#000000" font-family="sans-serif" font-size="14" lengthAdjust="spacing" textLength="17.2607" x="643" y="1094.5889">(z.</text><text fill="#000000" font-family="sans-serif" font-size="14" lengthAdjust="spacing" textLength="4.4502" x="660.2607" y="1094.5889">&#160;</text><text fill="#000000" font-family="sans-serif" font-size="14" lengthAdjust="spacing" textLength="14.0547" x="664.7109" y="1094.5889">B.</text><text fill="#000000" font-family="sans-serif" font-size="14" lengthAdjust="spacing" textLength="4.4502" x="678.7656" y="1094.5889">&#160;</text><text fill="#000000" font-family="sans-serif" font-size="14" lengthAdjust="spacing" textLength="79.3447" x="683.2158" y="1094.5889">SwingSet3)</text></g><!--entity RPC_Server--><g class="entity" data-entity="RPC_Server" data-source-line="30" data-uid="ent0016" id="entity_RPC_Server"><rect fill="#F1F1F1" height="52.5938" rx="2.5" ry="2.5" style="stroke:#181818;stroke-width:0.5;" width="162.4199" x="633" y="925.2969"/><text fill="#000000" font-family="sans-serif" font-size="14" lengthAdjust="spacing" textLength="67.5049" x="655.2773" y="948.292">JSON-RPC</text><text fill="#000000" font-family="sans-serif" font-size="14" lengthAdjust="spacing" textLength="4.4502" x="722.7822" y="948.292">&#160;</text><text fill="#000000" font-family="sans-serif" font-size="14" lengthAdjust="spacing" textLength="45.9102" x="727.2324" y="948.292">Server</text><text fill="#000000" font-family="sans-serif" font-size="14" lengthAdjust="spacing" textLength="18.2246" x="643" y="964.5889">(in</text><text fill="#000000" font-family="sans-serif" font-size="14" lengthAdjust="spacing" textLength="4.4502" x="661.2246" y="964.5889">&#160;</text><text fill="#000000" font-family="sans-serif" font-size="14" lengthAdjust="spacing" textLength="28.376" x="665.6748" y="964.5889">AUT</text><text fill="#000000" font-family="sans-serif" font-size="14" lengthAdjust="spacing" textLength="4.4502" x="694.0508" y="964.5889">&#160;</text><text fill="#000000" font-family="sans-serif" font-size="14" lengthAdjust="spacing" textLength="86.9189" x="698.501" y="964.5889">eingebettet)</text></g><g class="entity" data-entity="GMN26" data-source-line="51" data-uid="ent0027" id="entity_GMN26"><path d="M1315.5,546.2969 L1315.5,707.625 L1550.251,707.625 L1550.251,556.2969 L1540.251,546.2969 L1315.5,546.2969" fill="#FEFFDD" style="stroke:#181818;stroke-width:0.5;"/><path d="M1540.251,546.2969 L1540.251,556.2969 L1550.251,556.2969 L1540.251,546.2969" fill="#FEFFDD" style="stroke:#181818;stroke-width:1;"/><text fill="#000000" font-family="sans-serif" font-size="13" lengthAdjust="spacing" textLength="51.5938" x="1321.5" y="563.3638">&#8222;Heilige</text><text fill="#000000" font-family="sans-serif" font-size="13" lengthAdjust="spacing" textLength="4.1323" x="1373.0938" y="563.3638">&#160;</text><text fill="#000000" font-family="sans-serif" font-size="13" lengthAdjust="spacing" textLength="91.0508" x="1377.2261" y="563.3638">Dreifaltigkeit&#8220;</text><text fill="#000000" font-family="sans-serif" font-size="13" lengthAdjust="spacing" textLength="4.1323" x="1468.2769" y="563.3638">&#160;</text><text fill="#000000" font-family="sans-serif" font-size="13" lengthAdjust="spacing" textLength="11.6099" x="1472.4092" y="563.3638">je</text><text fill="#000000" font-family="sans-serif" font-size="13" lengthAdjust="spacing" textLength="4.1323" x="1484.019" y="563.3638">&#160;</text><text fill="#000000" font-family="sans-serif" font-size="13" lengthAdjust="spacing" textLength="47.0996" x="1488.1514" y="563.3638">Objekt:</text><text fill="#000000" font-family="sans-serif" font-size="13" lengthAdjust="spacing" textLength="13.3428" x="1322.3379" y="578.4966">1)</text><text fill="#000000" font-family="sans-serif" font-size="13" lengthAdjust="spacing" textLength="4.1323" x="1335.6807" y="578.4966">&#160;</text><text fill="#000000" font-family="sans-serif" font-size="13" lengthAdjust="spacing" textLength="68.2944" x="1339.813" y="578.4966">Abstrakter</text><text fill="#000000" font-family="sans-serif" font-size="13" lengthAdjust="spacing" textLength="4.1323" x="1408.1074" y="578.4966">&#160;</text><text fill="#000000" font-family="sans-serif" font-size="13" lengthAdjust="spacing" textLength="49.0864" x="1412.2397" y="578.4966">Lokator</text><text fill="#000000" font-family="sans-serif" font-size="13" lengthAdjust="spacing" textLength="4.1323" x="1461.3262" y="578.4966">&#160;</text><text fill="#000000" font-family="sans-serif" font-size="13" lengthAdjust="spacing" textLength="68.9546" x="1465.4585" y="578.4966">(fachlicher</text><text fill="#000000" font-family="sans-serif" font-size="13" lengthAdjust="spacing" textLength="43.4243" x="1406.6633" y="593.6294">Name)</text><text fill="#000000" font-family="sans-serif" font-size="13" lengthAdjust="spacing" textLength="13.3428" x="1361.0142" y="608.7622">2)</text><text fill="#000000" font-family="sans-serif" font-size="13" lengthAdjust="spacing" textLength="4.1323" x="1374.3569" y="608.7622">&#160;</text><text fill="#000000" font-family="sans-serif" font-size="13" lengthAdjust="spacing" textLength="64.0288" x="1378.4893" y="608.7622">Konkreter</text><text fill="#000000" font-family="sans-serif" font-size="13" lengthAdjust="spacing" textLength="4.1323" x="1442.5181" y="608.7622">&#160;</text><text fill="#000000" font-family="sans-serif" font-size="13" lengthAdjust="spacing" textLength="49.0864" x="1446.6504" y="608.7622">Lokator</text><text fill="#000000" font-family="sans-serif" font-size="13" lengthAdjust="spacing" textLength="176.395" x="1340.178" y="623.895">(XPath/CSS/RPC-Handle/&#8230;)</text><text fill="#000000" font-family="sans-serif" font-size="13" lengthAdjust="spacing" textLength="13.3428" x="1328.4031" y="639.0278">3)</text><text fill="#000000" font-family="sans-serif" font-size="13" lengthAdjust="spacing" textLength="4.1323" x="1341.7458" y="639.0278">&#160;</text><text fill="#000000" font-family="sans-serif" font-size="13" lengthAdjust="spacing" textLength="70.9097" x="1345.8782" y="639.0278">Interaktion</text><text fill="#000000" font-family="sans-serif" font-size="13" lengthAdjust="spacing" textLength="4.1323" x="1416.7878" y="639.0278">&#160;</text><text fill="#000000" font-family="sans-serif" font-size="13" lengthAdjust="spacing" textLength="10.8926" x="1420.9202" y="639.0278">=</text><text fill="#000000" font-family="sans-serif" font-size="13" lengthAdjust="spacing" textLength="4.1323" x="1431.8127" y="639.0278">&#160;</text><text fill="#000000" font-family="sans-serif" font-size="13" lengthAdjust="spacing" textLength="92.4028" x="1435.9451" y="639.0278">Widget-Klasse</text><text fill="#000000" font-family="sans-serif" font-size="13" lengthAdjust="spacing" textLength="12.397" x="1328.3936" y="654.1606">&#160;&#160;&#160;</text><text fill="#000000" font-family="sans-serif" font-size="13" lengthAdjust="spacing" textLength="59.8013" x="1340.7905" y="654.1606">(definiert</text><text fill="#000000" font-family="sans-serif" font-size="13" lengthAdjust="spacing" textLength="4.1323" x="1400.5918" y="654.1606">&#160;</text><text fill="#000000" font-family="sans-serif" font-size="13" lengthAdjust="spacing" textLength="54.5073" x="1404.7241" y="654.1606">erlaubte</text><text fill="#000000" font-family="sans-serif" font-size="13" lengthAdjust="spacing" textLength="4.1323" x="1459.2314" y="654.1606">&#160;</text><text fill="#000000" font-family="sans-serif" font-size="13" lengthAdjust="spacing" textLength="64.9937" x="1463.3638" y="654.1606">Methoden</text><text fill="#000000" font-family="sans-serif" font-size="13" lengthAdjust="spacing" textLength="22.2422" x="1397.6338" y="669.2935">wie</text><text fill="#000000" font-family="sans-serif" font-size="13" lengthAdjust="spacing" textLength="4.1323" x="1419.876" y="669.2935">&#160;</text><text fill="#000000" font-family="sans-serif" font-size="13" lengthAdjust="spacing" textLength="35.1089" x="1424.0083" y="669.2935">Click,</text><text fill="#000000" font-family="sans-serif" font-size="13" lengthAdjust="spacing" textLength="16.5293" x="1323.2869" y="684.4263">&#160;&#160;&#160;&#160;</text><text fill="#000000" font-family="sans-serif" font-size="13" lengthAdjust="spacing" textLength="62.188" x="1339.8162" y="684.4263">SetValue,</text><text fill="#000000" font-family="sans-serif" font-size="13" lengthAdjust="spacing" textLength="4.1323" x="1402.0042" y="684.4263">&#160;</text><text fill="#000000" font-family="sans-serif" font-size="13" lengthAdjust="spacing" textLength="78.9585" x="1406.1365" y="684.4263">VerifyValue,</text><text fill="#000000" font-family="sans-serif" font-size="13" lengthAdjust="spacing" textLength="4.1323" x="1485.095" y="684.4263">&#160;</text><text fill="#000000" font-family="sans-serif" font-size="13" lengthAdjust="spacing" textLength="44.2368" x="1489.2273" y="684.4263">Select,</text><text fill="#000000" font-family="sans-serif" font-size="13" lengthAdjust="spacing" textLength="18.0718" x="1419.3396" y="699.5591">&#8230;)</text></g><g class="entity" data-entity="GMN29" data-source-line="60" data-uid="ent0030" id="entity_GMN29"><path d="M589,368.2969 L589,438.8281 L818.7808,438.8281 L818.7808,378.2969 L808.7808,368.2969 L589,368.2969" fill="#FEFFDD" style="stroke:#181818;stroke-width:0.5;"/><path d="M808.7808,368.2969 L808.7808,378.2969 L818.7808,378.2969 L808.7808,368.2969" fill="#FEFFDD" style="stroke:#181818;stroke-width:1;"/><text fill="#000000" font-family="sans-serif" font-size="13" lengthAdjust="spacing" textLength="63.1719" x="616.5313" y="385.3638">Keywords</text><text fill="#000000" font-family="sans-serif" font-size="13" lengthAdjust="spacing" textLength="4.1323" x="679.7031" y="385.3638">&#160;</text><text fill="#000000" font-family="sans-serif" font-size="13" lengthAdjust="spacing" textLength="26.876" x="683.8354" y="385.3638">sind</text><text fill="#000000" font-family="sans-serif" font-size="13" lengthAdjust="spacing" textLength="4.1323" x="710.7114" y="385.3638">&#160;</text><text fill="#000000" font-family="sans-serif" font-size="13" lengthAdjust="spacing" textLength="67.4058" x="714.8438" y="385.3638">einheitlich</text><text fill="#000000" font-family="sans-serif" font-size="13" lengthAdjust="spacing" textLength="54.0884" x="672.3462" y="400.4966">Englisch</text><text fill="#000000" font-family="sans-serif" font-size="13" lengthAdjust="spacing" textLength="16.0278" x="595" y="415.6294">(z.</text><text fill="#000000" font-family="sans-serif" font-size="13" lengthAdjust="spacing" textLength="4.1323" x="611.0278" y="415.6294">&#160;</text><text fill="#000000" font-family="sans-serif" font-size="13" lengthAdjust="spacing" textLength="13.0508" x="615.1602" y="415.6294">B.</text><text fill="#000000" font-family="sans-serif" font-size="13" lengthAdjust="spacing" textLength="4.1323" x="628.2109" y="415.6294">&#160;</text><text fill="#000000" font-family="sans-serif" font-size="13" lengthAdjust="spacing" textLength="46.084" x="632.3433" y="415.6294">"Select</text><text fill="#000000" font-family="sans-serif" font-size="13" lengthAdjust="spacing" textLength="4.1323" x="678.4272" y="415.6294">&#160;</text><text fill="#000000" font-family="sans-serif" font-size="13" lengthAdjust="spacing" textLength="39.7109" x="682.5596" y="415.6294">Host",</text><text fill="#000000" font-family="sans-serif" font-size="13" lengthAdjust="spacing" textLength="4.1323" x="722.2705" y="415.6294">&#160;</text><text fill="#000000" font-family="sans-serif" font-size="13" lengthAdjust="spacing" textLength="37.7368" x="726.4028" y="415.6294">"Start</text><text fill="#000000" font-family="sans-serif" font-size="13" lengthAdjust="spacing" textLength="4.1323" x="764.1396" y="415.6294">&#160;</text><text fill="#000000" font-family="sans-serif" font-size="13" lengthAdjust="spacing" textLength="35.5088" x="768.272" y="415.6294">App",</text><text fill="#000000" font-family="sans-serif" font-size="13" lengthAdjust="spacing" textLength="48.0073" x="675.3867" y="430.7622">"Click")</text></g><g class="entity" data-entity="GMN33" data-source-line="67" data-uid="ent0034" id="entity_GMN33"><path d="M1041.5,583.7969 L1041.5,669.4609 L1280.0596,669.4609 L1280.0596,593.7969 L1270.0596,583.7969 L1041.5,583.7969" fill="#FEFFDD" style="stroke:#181818;stroke-width:0.5;"/><path d="M1270.0596,583.7969 L1270.0596,593.7969 L1280.0596,593.7969 L1270.0596,583.7969" fill="#FEFFDD" style="stroke:#181818;stroke-width:1;"/><text fill="#000000" font-family="sans-serif" font-size="13" lengthAdjust="spacing" textLength="117.1777" x="1047.5" y="600.8638">Projektspezifische</text><text fill="#000000" font-family="sans-serif" font-size="13" lengthAdjust="spacing" textLength="4.1323" x="1164.6777" y="600.8638">&#160;</text><text fill="#000000" font-family="sans-serif" font-size="13" lengthAdjust="spacing" textLength="96.2495" x="1168.8101" y="600.8638">&#8222;Extraw&#252;rste&#8220;:</text><text fill="#000000" font-family="sans-serif" font-size="13" lengthAdjust="spacing" textLength="95.8687" x="1080.2539" y="615.9966">CustomWidget</text><text fill="#000000" font-family="sans-serif" font-size="13" lengthAdjust="spacing" textLength="4.1323" x="1176.1226" y="615.9966">&#160;</text><text fill="#000000" font-family="sans-serif" font-size="13" lengthAdjust="spacing" textLength="52.0508" x="1180.2549" y="615.9966">extends</text><text fill="#000000" font-family="sans-serif" font-size="13" lengthAdjust="spacing" textLength="77.7207" x="1117.4194" y="631.1294">BaseWidget</text><text fill="#000000" font-family="sans-serif" font-size="13" lengthAdjust="spacing" textLength="10.8926" x="1054.2729" y="646.2622">&#8594;</text><text fill="#000000" font-family="sans-serif" font-size="13" lengthAdjust="spacing" textLength="4.1323" x="1065.1655" y="646.2622">&#160;</text><text fill="#000000" font-family="sans-serif" font-size="13" lengthAdjust="spacing" textLength="12.0732" x="1069.2979" y="646.2622">In</text><text fill="#000000" font-family="sans-serif" font-size="13" lengthAdjust="spacing" textLength="4.1323" x="1081.3711" y="646.2622">&#160;</text><text fill="#000000" font-family="sans-serif" font-size="13" lengthAdjust="spacing" textLength="35.293" x="1085.5034" y="646.2622">YAML</text><text fill="#000000" font-family="sans-serif" font-size="13" lengthAdjust="spacing" textLength="4.1323" x="1120.7964" y="646.2622">&#160;</text><text fill="#000000" font-family="sans-serif" font-size="13" lengthAdjust="spacing" textLength="118.333" x="1124.9287" y="646.2622">Interaktionsklasse</text><text fill="#000000" font-family="sans-serif" font-size="13" lengthAdjust="spacing" textLength="4.1323" x="1243.2617" y="646.2622">&#160;</text><text fill="#000000" font-family="sans-serif" font-size="13" lengthAdjust="spacing" textLength="10.8926" x="1247.394" y="646.2622">=</text><text fill="#000000" font-family="sans-serif" font-size="13" lengthAdjust="spacing" textLength="95.8687" x="1108.3455" y="661.395">CustomWidget</text></g><!--link Tests to KW--><g class="link" data-entity-1="Tests" data-entity-2="KW" data-source-line="33" data-uid="lnk17" id="link_Tests_KW"><path d="M546.8,131.3969 C551.86,153.7169 557.8354,180.0849 562.8854,202.3949" fill="none" id="Tests-to-KW" style="stroke:#181818;stroke-width:1;"/><polygon fill="#181818" points="564.21,208.2469,566.1244,198.5859,563.1061,203.3702,558.3218,200.352,564.21,208.2469" style="stroke:#181818;stroke-width:1;"/><text fill="#000000" font-family="sans-serif" font-size="13" lengthAdjust="spacing" textLength="115.4766" x="558" y="174.3638">ruft Keywords auf</text></g><!--link KW to Widgets--><g class="link" data-entity-1="KW" data-entity-2="Widgets" data-source-line="34" data-uid="lnk18" id="link_KW_Widgets"><path d="M481.36,258.5669 C463.98,266.8569 447.58,278.0869 436,293.2969 C417.75,317.2669 415.8495,347.0296 417.4195,371.0996" fill="none" id="KW-to-Widgets" style="stroke:#181818;stroke-width:1;"/><polygon fill="#181818" points="417.81,377.0869,421.2157,367.8456,417.4846,372.0975,413.2327,368.3663,417.81,377.0869" style="stroke:#181818;stroke-width:1;"/><text fill="#000000" font-family="sans-serif" font-size="13" lengthAdjust="spacing" textLength="229.4297" x="437" y="306.3638">mappt Keyword &#8594; Widget-Methode</text></g><!--link Widgets to YAML--><g class="link" data-entity-1="Widgets" data-entity-2="YAML" data-source-line="37" data-uid="lnk19" id="link_Widgets_YAML"><path d="M323.33,408.6669 C228.68,414.7169 94.75,430.1369 62,469.2969 C8.17,533.6669 121.7953,578.8339 212.1453,603.7139" fill="none" id="Widgets-to-YAML" style="stroke:#181818;stroke-width:1;"/><polygon fill="#181818" points="217.93,605.3069,210.3149,599.061,213.1094,603.9794,208.191,606.7739,217.93,605.3069" style="stroke:#181818;stroke-width:1;"/><text fill="#000000" font-family="sans-serif" font-size="13" lengthAdjust="spacing" textLength="95.8687" x="115.3015" y="489.8638">resolve(Name)</text><text fill="#000000" font-family="sans-serif" font-size="13" lengthAdjust="spacing" textLength="200.4717" x="63" y="504.9966">&#8594; (Locator, Interaktionsklasse)</text></g><!--link YAML to Widgets--><g class="link" data-entity-1="YAML" data-entity-2="Widgets" data-source-line="65" data-uid="lnk32" id="link_YAML_Widgets"><path d="M312.09,600.2369 C319.28,568.0069 334.47,511.6869 360,469.2969 C368.51,455.1669 376.2945,445.8065 387.4445,434.7765" fill="none" id="YAML-to-Widgets" style="stroke:#181818;stroke-width:1;stroke-dasharray:7.0,7.0;"/><polygon fill="#181818" points="391.71,430.5569,382.4986,434.0426,388.1554,434.0732,388.1248,439.73,391.71,430.5569" style="stroke:#181818;stroke-width:1;"/><text fill="#000000" font-family="sans-serif" font-size="13" lengthAdjust="spacing" textLength="152.1089" x="395.5884" y="482.3638">referenziert generische</text><text fill="#000000" font-family="sans-serif" font-size="13" lengthAdjust="spacing" textLength="221.2856" x="361" y="497.4966">oder projektspezifisch abgeleitete</text><text fill="#000000" font-family="sans-serif" font-size="13" lengthAdjust="spacing" textLength="196.0791" x="373.6033" y="512.6294">Widget-Klassen (Polymorphie)</text></g><!--link Widgets to A_RPC--><g class="link" data-entity-1="Widgets" data-entity-2="A_RPC" data-source-line="40" data-uid="lnk20" id="link_Widgets_A_RPC"><path d="M493.23,430.3969 C534.31,445.3969 579.11,462.6469 587,469.2969 C633.53,508.5069 661.0348,571.3183 672.9348,603.0783" fill="none" id="Widgets-to-A_RPC" style="stroke:#181818;stroke-width:1;"/><polygon fill="#181818" points="675.04,608.6969,675.6279,598.8656,673.2857,604.0147,668.1365,601.6725,675.04,608.6969" style="stroke:#181818;stroke-width:1;"/><text fill="#000000" font-family="sans-serif" font-size="13" lengthAdjust="spacing" textLength="134.437" x="627" y="497.3638">delegiert an Adapter</text></g><!--link Widgets to A_WEB--><g class="link" data-entity-1="Widgets" data-entity-2="A_WEB" data-source-line="41" data-uid="lnk21" id="link_Widgets_A_WEB"><path d="M490.14,430.2969 C501.03,433.6969 512.24,436.8569 523,439.2969 C630.83,463.8069 673.22,415.7969 770,469.2969 C829.56,502.2169 869.2108,570.1084 886.1308,603.3884" fill="none" id="Widgets-to-A_WEB" style="stroke:#181818;stroke-width:1;"/><polygon fill="#181818" points="888.85,608.7369,888.3368,598.9014,886.584,604.2798,881.2055,602.527,888.85,608.7369" style="stroke:#181818;stroke-width:1;"/><text fill="#000000" font-family="sans-serif" font-size="13" lengthAdjust="spacing" textLength="108.3926" x="825" y="497.3638">(optional sp&#228;ter)</text></g><!--link A_RPC to RPC_Client--><g class="link" data-entity-1="A_RPC" data-entity-2="RPC_Client" data-source-line="43" data-uid="lnk22" id="link_A_RPC_RPC_Client"><path d="M684.16,644.9169 C690.47,679.0269 703.4593,749.2568 709.7593,783.3368" fill="none" id="A_RPC-to-RPC_Client" style="stroke:#181818;stroke-width:1;"/><polygon fill="#181818" points="710.85,789.2369,713.1473,779.6597,709.9411,784.3202,705.2806,781.1139,710.85,789.2369" style="stroke:#181818;stroke-width:1;"/></g><!--link A_WEB to WD_Client--><g class="link" data-entity-1="A_WEB" data-entity-2="WD_Client" data-source-line="44" data-uid="lnk23" id="link_A_WEB_WD_Client"><path d="M895.85,644.9169 C893.56,679.0269 888.8423,749.1704 886.5523,783.2504" fill="none" id="A_WEB-to-WD_Client" style="stroke:#181818;stroke-width:1;"/><polygon fill="#181818" points="886.15,789.2369,890.7444,780.5253,886.4852,784.2481,882.7624,779.989,886.15,789.2369" style="stroke:#181818;stroke-width:1;"/></g><!--link RPC_Client to RPC_Server--><g class="link" data-entity-1="RPC_Client" data-entity-2="RPC_Server" data-source-line="46" data-uid="lnk24" id="link_RPC_Client_RPC_Server"><path d="M714,825.4869 C714,850.2869 714,890.2769 714,919.1169" fill="none" id="RPC_Client-to-RPC_Server" style="stroke:#181818;stroke-width:1;"/><polygon fill="#181818" points="714,925.1169,718,916.1169,714,920.1169,710,916.1169,714,925.1169" style="stroke:#181818;stroke-width:1;"/><text fill="#000000" font-family="sans-serif" font-size="13" lengthAdjust="spacing" textLength="97.8555" x="715" y="870.3638">JSON-RPC Calls</text></g><!--link RPC_Server to SwingApp--><g class="link" data-entity-1="RPC_Server" data-entity-2="SwingApp" data-source-line="47" data-uid="lnk25" id="link_RPC_Server_SwingApp"><path d="M711.8,978.3969 C709.88,1000.7169 707.6218,1026.9587 705.7118,1049.2687" fill="none" id="RPC_Server-to-SwingApp" style="stroke:#181818;stroke-width:1;"/><polygon fill="#181818" points="705.2,1055.2469,709.9531,1046.6209,705.6265,1050.2651,701.9823,1045.9385,705.2,1055.2469" style="stroke:#181818;stroke-width:1;"/><text fill="#000000" font-family="sans-serif" font-size="13" lengthAdjust="spacing" textLength="130.5396" x="710" y="1021.3638">steuert UI-Elemente</text></g><!--link YAML to GMN26--><g class="link" data-entity-1="YAML" data-entity-2="GMN26" data-source-line="51" data-uid="lnk28" id="link_YAML_GMN26"><path d="M351.43,600.1569 C409.04,567.3269 513.72,513.3569 611.5,492.7969 C756.98,462.1969 1141.39,440.3569 1280.5,492.7969 C1310.68,504.1669 1338.76,524.5369 1362.4,546.0069" fill="none" id="YAML-GMN26" style="stroke:#181818;stroke-width:1;stroke-dasharray:7.0,7.0;"/></g><!--link KW to GMN29--><g class="link" data-entity-1="KW" data-entity-2="GMN29" data-source-line="60" data-uid="lnk31" id="link_KW_GMN29"><path d="M636.11,261.3969 C650.65,269.6869 664.75,280.2069 675,293.2969 C691.73,314.6669 698.85,344.8169 701.86,368.0669" fill="none" id="KW-GMN29" style="stroke:#181818;stroke-width:1;stroke-dasharray:7.0,7.0;"/></g><!--link OKW to GMN33--><g class="link" data-entity-1="OKW" data-entity-2="GMN33" data-source-line="67" data-uid="lnk35" id="link_OKW_GMN33"><path d="M562.0789,428.1912 C562.2119,428.4193 562.3469,428.6466 562.484,428.8729 C562.758,429.3254 563.0402,429.774 563.3306,430.2173 C565.6544,433.7644 568.51,436.9819 572,439.2969 C640.76,484.8769 864.53,440.9569 942,469.2969 C1010.02,494.1769 1075.96,546.3069 1117.4,583.5569" fill="none" id="OKW-GMN33" style="stroke:#181818;stroke-width:1;stroke-dasharray:7.0,7.0;"/></g><!--SRC=[VLNBJYD75DttLronoDWARH8cAwH4CfWH10OipE0yY4RbzdLtqUNgLbKr7XD5OfKFo3hAAiedP9KTVyANv5Hrssv351OMLNNkwznpRzjSwb8OCQUac9U5Pkr6RgcO32TEw5HnPDSGcubfiP0wfPbGjlsoCA8SowdBQ7__YzRzb6UYKkwQFxc-agcUmpyb-64JHKuw1Bey6tzrLKmAHp7rJP99nxch37NELWcnxj9SEdf-_EE49TomeO5XYIISJ7EMxldnzoWgHPABb6cdzlOEyNbHc7o7XAMhT_HpHFJZDLj7emf1xAtkz8o7Td_o2FzYFMIJq1aluM3gaSEbomfT8y_6qI-jSC3JkLYo2O7yAKG27IaxIvsKDHjfawnxg_l3KofDGQtQtB8CNXjyo61o1mwKj7YcplVzz-SmtLJ_klZWmEEs4kjFHGcYun58JJ8NqkiFXdLwpUC1tObxSJKy2Yxw7_7VrkkO9mCZxy5unvPFV-Akso37nuTRqQwHr0IuFL_SlD8o5quMEaGTNDtKKRyTNLx4Y457IgBqu0h7Z_KnqBOEs8AC1ol4LdqVhX7j1ydABa7Ll2uGbtKer4MZeDP-MQA53pqwxDKt8tPlwph24UzRoOtO806OI1tyCJ0yOUUuqOfFkGRvX89oACPewFWRg8CEo5IpZNn8LBC8rol4IXa7D1TbkSRHyw-_DM_nUuRSfXn5RwXVpTJJtxP27P_JgPySaNjYBQ8x8z9evIusCiqS_7iX-1pO5kgUEnUO0wyVUE-S5ubmXTdTSfGhOIrtVR01Aqv3tqYWzbe5UqrhDv6QGe9S46dghIJIQHdz1nYA0RXJbDw_KBGIL1JLZbR8bY1gepLnQnb46yoMMTqKHDa8JIXbezRR2hxgFC0GJ-Mp_t0Q7olsEoem7ySnNHHEFc0A7x2Hcl7JB-QFFgDXePRpmfIPP6yLwS9XW_fsK36h1vFe_mQOxh08mzGV0Fbbb_eJwtn_aF1vaVkUKMScaanXad4NUWhaVXVJfdF3My3lXi9bUqUZqHxgZa-4dYhUUtxyorkyxRPxJr-l57SMH000_ZfOsrA7Xh9HefgWcaQHcXQe4Smd-MuDnhIu6w4gtgKRxBdPiZcC88h4xLA8otfAdfIefWRBrHLppmrsAMq6nKhWC6qPMF6LqZ6-G7vr0jJCxqxjbquAwtPsSNG2QQAF_X3oscc7UzFkJNmYzOAbFQ3rJgPxs_CRsLDlItwGin0kZ52lrvvLmpCsh1y2BMjxljLWnRnsGMAI8bDyQ1mmMoHZfxUIwhwav39mCdpfaBs0ZZz15OkdVmma2zbuiHnL5ePr0C9t5hLREXIMwoilF4p-gQxNmkkvXmJQBjRS_Gi0]--></g></svg>